<?xml version="1.0" standalone="no"?>
<!DOCTYPE svg PUBLIC "-//W3C//DTD SVG 20010904//EN"
 "http://www.w3.org/TR/2001/REC-SVG-20010904/DTD/svg10.dtd">
<svg version="1.0" xmlns="http://www.w3.org/2000/svg"
 width="690.000000pt" height="690.000000pt" viewBox="0 0 690.000000 690.000000"
 preserveAspectRatio="xMidYMid meet">

<g transform="translate(0.000000,690.000000) scale(0.100000,-0.100000)"
fill="#ff663d" stroke="none">
<path d="M0 6024 l0 -877 36 -43 c45 -56 80 -57 138 -3 17 16 36 19 121 19 61
0 122 -6 155 -16 104 -29 103 -30 143 15 36 40 37 42 21 66 -23 35 -14 125 20
195 33 68 34 84 4 76 -77 -22 -108 -15 -108 24 0 9 -11 22 -25 28 l-25 12 37
32 c63 55 96 75 137 82 57 11 128 49 187 102 43 38 57 45 83 41 24 -3 39 2 65
25 19 17 47 35 63 40 16 6 36 24 44 40 15 30 17 30 70 24 44 -5 54 -3 54 9 0
8 12 18 26 21 14 4 36 17 49 30 13 13 29 24 35 24 18 0 11 22 -10 27 -15 4
-20 14 -20 39 0 30 -3 34 -27 34 -15 0 -39 -11 -54 -26 -30 -29 -49 -25 -49
11 0 16 -7 26 -22 31 -22 7 -22 7 6 30 15 13 33 24 40 24 7 0 26 18 41 41 16
22 40 46 54 54 14 7 36 25 48 39 13 14 32 26 42 26 11 0 23 5 26 10 3 6 17 10
30 10 39 0 55 11 55 36 0 21 2 23 19 13 20 -13 51 -6 51 10 0 6 -15 14 -32 19
-18 4 -34 16 -36 25 -4 19 23 24 34 6 4 -7 23 5 50 32 46 45 48 59 8 59 -17 0
-27 8 -34 25 -5 14 -11 25 -13 25 -11 0 -65 -48 -60 -54 9 -9 -29 -42 -69 -59
-19 -8 -46 -26 -61 -41 -14 -14 -33 -26 -41 -26 -9 0 -31 -16 -50 -35 -24 -23
-45 -35 -63 -35 -16 0 -39 -7 -51 -16 -23 -16 -91 -32 -174 -41 -38 -4 -49 -2
-54 11 -8 20 13 47 34 44 8 -2 19 6 26 17 15 25 48 54 63 55 6 0 37 25 67 55
50 49 55 57 49 85 -6 31 -5 32 28 28 29 -3 34 0 37 20 2 12 7 20 12 17 15 -9
60 6 60 21 0 8 4 14 9 14 5 0 11 8 14 18 2 9 8 25 12 35 9 21 -8 23 -29 2 -8
-8 -18 -15 -23 -15 -4 0 -14 -9 -21 -20 -15 -25 -33 -25 -62 -2 l-23 19 24 16
c13 10 19 17 14 18 -43 3 -115 34 -115 50 0 5 11 14 25 19 14 5 25 14 25 19 0
5 10 11 22 13 12 2 28 13 34 26 6 12 20 29 30 37 17 13 15 14 -26 15 -26 0
-51 -5 -57 -11 -8 -8 -26 -7 -67 2 -43 9 -59 10 -68 1 -7 -7 -29 -12 -49 -12
-20 0 -56 -7 -79 -15 -23 -8 -55 -15 -71 -15 -16 0 -29 -4 -29 -10 0 -5 -11
-12 -25 -16 -14 -3 -33 -19 -42 -35 -21 -35 -62 -40 -70 -9 -3 11 -13 20 -23
20 -9 0 -29 -9 -43 -20 -14 -11 -32 -20 -39 -20 -8 0 -37 -16 -64 -35 -27 -19
-57 -35 -66 -35 -9 0 -19 -4 -23 -10 -4 -6 -15 -5 -30 2 -17 8 -32 8 -52 0
-47 -18 -93 -25 -93 -13 0 6 11 13 24 17 14 3 32 14 42 25 9 10 23 19 31 19
24 0 13 19 -26 46 -22 14 -42 32 -45 40 -3 8 -16 14 -28 14 -32 1 69 40 103
40 15 0 29 7 33 15 5 13 -18 15 -169 15 l-175 0 0 -876z m1140 596 c0 -5 -13
-16 -30 -25 -23 -12 -30 -22 -30 -44 0 -33 -27 -90 -46 -98 -7 -3 -16 -14 -19
-24 -6 -17 -13 -19 -60 -14 -52 4 -54 3 -87 -34 -18 -22 -41 -51 -51 -65 -23
-34 -62 -36 -53 -3 3 12 6 29 6 38 0 20 98 129 115 129 8 0 22 9 32 19 10 10
38 24 62 31 65 17 91 37 91 70 0 24 5 29 28 32 31 4 42 1 42 -12z m-247 -65
c-3 -13 -30 -18 -51 -10 -14 5 -14 7 -2 16 19 11 56 8 53 -6z m177 -292 c-1
-17 -60 -65 -76 -61 -26 5 -30 28 -4 28 28 0 62 19 55 31 -4 5 1 9 9 9 9 0 16
-3 16 -7z m85 -3 c-3 -5 -10 -10 -16 -10 -5 0 -9 5 -9 10 0 6 7 10 16 10 8 0
12 -4 9 -10z m-53 -50 c-12 -16 -22 -41 -22 -55 0 -18 -5 -25 -20 -25 -13 0
-20 7 -20 19 0 11 -5 23 -10 26 -12 8 42 62 68 67 27 6 27 0 4 -32z m-445 9
c16 -16 5 -39 -17 -39 -23 0 -34 16 -26 35 6 18 28 19 43 4z m33 -69 c0 -5 -7
-10 -15 -10 -8 0 -15 5 -15 10 0 6 7 10 15 10 8 0 15 -4 15 -10z m170 -30 c0
-5 -4 -10 -10 -10 -5 0 -10 5 -10 10 0 6 5 10 10 10 6 0 10 -4 10 -10z"/>
<path d="M2285 6891 c-10 -18 17 -23 33 -7 15 15 15 16 -5 16 -12 0 -24 -4
-28 -9z"/>
<path d="M2523 6893 c9 -2 23 -2 30 0 6 3 -1 5 -18 5 -16 0 -22 -2 -12 -5z"/>
<path d="M4660 6881 c-12 -23 -14 -88 -2 -93 14 -6 62 -77 62 -92 0 -28 137
-84 232 -93 26 -3 52 -11 59 -19 6 -8 17 -14 23 -14 7 0 22 -13 34 -29 l21
-29 -37 -22 c-41 -25 -107 -22 -149 6 -18 11 -36 13 -68 8 -25 -3 -45 -10 -45
-15 0 -5 6 -9 13 -9 14 0 49 -42 59 -72 4 -9 20 -19 37 -23 19 -4 56 -32 95
-70 35 -35 78 -71 95 -79 17 -9 31 -20 31 -25 0 -5 13 -14 28 -20 15 -7 46
-34 67 -61 22 -28 45 -50 52 -50 7 0 13 -5 13 -10 0 -6 11 -15 25 -20 26 -10
70 -84 59 -101 -3 -6 -19 -8 -35 -5 -17 3 -29 1 -29 -5 0 -7 -12 -8 -31 -4
-48 11 -75 28 -71 48 3 13 -4 17 -32 17 -45 0 -53 -13 -19 -31 50 -26 74 -55
71 -86 -2 -23 1 -29 20 -31 15 -2 22 -10 22 -26 0 -21 6 -24 58 -29 31 -3 65
-8 74 -12 10 -4 24 1 38 15 19 19 25 21 45 10 13 -7 31 -10 40 -6 28 10 86
-13 145 -58 44 -34 57 -50 63 -81 17 -79 23 -90 72 -125 63 -44 182 -165 215
-218 30 -48 77 -74 119 -66 26 6 33 2 50 -27 12 -19 21 -46 21 -60 0 -33 -37
-119 -51 -119 -6 0 -41 14 -79 30 -62 27 -79 30 -173 30 -127 0 -158 -10 -191
-61 -35 -52 -66 -52 -153 1 -37 22 -69 40 -72 40 -14 -1 -30 -18 -55 -62 -33
-57 -57 -61 -124 -22 -34 20 -66 29 -136 35 -161 16 -151 16 -154 -8 -3 -22 0
-23 60 -23 49 -1 72 -6 103 -25 22 -14 48 -25 57 -25 34 0 144 -60 166 -90 31
-42 58 -38 108 15 23 25 49 45 57 45 15 0 41 -17 142 -90 41 -30 107 -41 120
-20 9 15 52 12 58 -4 9 -22 -45 -66 -80 -66 -17 0 -55 11 -85 25 l-55 25 -69
-23 c-61 -20 -75 -21 -115 -11 -25 6 -83 15 -128 19 -69 6 -93 13 -154 47 -83
45 -91 44 -124 -25 -33 -68 -78 -85 -155 -57 -35 13 -41 12 -95 -15 -45 -23
-73 -30 -123 -31 -82 -1 -166 -26 -201 -60 -35 -34 -57 -29 -138 31 -33 25
-67 45 -75 45 -7 0 -21 -11 -29 -24 -32 -48 -47 -57 -85 -50 -21 4 -46 13 -57
20 -25 18 -50 18 -65 -1 -14 -17 -75 -20 -85 -5 -3 5 -15 14 -25 20 -15 8 -27
3 -65 -30 -25 -22 -52 -40 -60 -40 -7 0 -38 23 -69 51 -55 50 -55 50 -85 35
-16 -9 -33 -20 -36 -26 -11 -18 -36 -11 -75 20 -42 33 -84 39 -128 16 -47 -24
-150 -56 -181 -56 -17 0 -42 11 -59 25 -37 31 -116 34 -177 6 -49 -22 -107
-34 -128 -25 -8 3 -23 24 -32 46 -14 36 -18 39 -42 33 -15 -3 -53 -22 -86 -41
-34 -20 -72 -34 -91 -34 -47 0 -113 35 -131 71 -19 35 -67 59 -120 59 -19 0
-61 6 -93 14 -143 36 -193 41 -387 42 -166 1 -208 4 -245 18 -77 31 -110 36
-305 46 -104 5 -260 18 -345 27 -85 10 -173 17 -195 17 -38 -1 -213 -17 -320
-30 -45 -5 -59 -2 -145 40 -105 51 -139 56 -188 26 -41 -25 -73 -25 -105 0
-14 11 -30 20 -36 20 -8 0 -11 -701 -11 -2505 l0 -2505 1070 0 c621 0 1070 4
1070 9 0 17 29 20 44 6 25 -25 33 -17 40 42 6 53 5 58 -24 86 -16 16 -30 38
-30 47 0 21 -77 77 -118 86 -15 3 -44 12 -65 20 -20 8 -51 14 -67 14 -27 0
-73 24 -122 63 -21 16 -24 39 -5 36 6 -1 27 -1 46 0 29 1 32 3 20 17 -9 12
-24 15 -51 11 -36 -5 -38 -3 -46 26 -6 22 -15 33 -30 35 -12 2 -22 10 -22 18
0 19 37 18 48 -3 8 -14 16 -14 51 -6 33 9 41 8 41 -3 0 -7 9 -18 20 -24 11 -6
22 -21 25 -33 5 -18 13 -22 47 -22 36 0 43 -3 48 -24 5 -22 6 -22 19 -7 9 11
23 15 37 12 33 -9 40 12 9 26 -16 7 -24 17 -20 26 8 22 -14 42 -47 42 -22 0
-31 6 -35 21 -3 11 -16 25 -29 30 -20 7 -24 16 -24 49 0 37 3 42 30 51 33 12
41 39 11 39 -14 0 -20 10 -25 44 -9 56 -42 90 -80 80 -14 -3 -29 -10 -32 -15
-8 -14 25 -56 49 -63 17 -4 19 -8 9 -18 -16 -16 -15 -38 2 -38 19 0 28 -14 20
-34 -8 -21 -64 -22 -64 -1 0 9 -10 19 -22 24 -13 5 -31 19 -40 30 -10 12 -24
21 -33 21 -8 0 -22 11 -31 25 -9 14 -23 25 -30 25 -8 0 -14 5 -14 11 0 15 -77
89 -92 89 -19 0 -52 65 -44 86 4 11 13 14 30 10 15 -4 26 -1 28 6 4 10 10 10
32 0 33 -15 86 -16 86 -2 0 6 -7 13 -15 16 -9 4 -15 19 -15 35 0 43 -52 89
-101 89 -22 0 -39 5 -39 10 0 18 -56 11 -75 -10 -19 -21 -45 -27 -45 -10 0 6
-15 10 -32 10 l-33 -1 25 -14 c23 -12 24 -14 6 -21 -13 -5 -24 -1 -35 13 -9
10 -35 28 -58 38 -24 10 -43 21 -43 26 0 4 -16 16 -35 28 -19 11 -35 26 -35
33 0 7 -5 30 -11 51 -9 32 -18 41 -56 58 -26 11 -52 18 -59 15 -8 -3 -20 1
-28 9 -8 8 -26 19 -40 25 -17 6 -26 17 -26 32 0 21 -1 21 -13 3 -15 -19 -37
-13 -37 11 0 8 9 14 20 14 15 0 20 7 20 29 0 30 -17 49 -58 67 -21 8 -29 7
-44 -8 -24 -24 -48 -13 -48 23 0 39 -34 40 -54 2 -8 -16 -15 -23 -16 -16 0 6
-9 14 -19 18 -27 8 -16 47 13 43 15 -2 22 3 24 19 2 16 -2 23 -12 23 -9 0 -16
5 -16 11 0 6 -10 9 -22 8 -26 -2 -58 9 -58 21 0 5 22 14 49 21 43 11 50 16 53
41 6 36 -12 52 -38 34 -31 -21 -144 -7 -144 18 0 6 -18 29 -40 51 -49 50 -50
65 -5 65 28 0 38 5 44 22 5 14 5 28 -1 36 -13 15 -54 16 -64 0 -5 -7 -12 3
-18 27 -6 21 -20 43 -31 49 -11 6 -22 12 -25 14 -2 2 1 7 8 11 20 12 3 61 -24
71 -15 6 -24 18 -24 30 0 13 -10 24 -25 30 -14 5 -25 16 -25 23 0 28 -33 79
-56 87 -28 11 -42 39 -25 49 6 4 9 15 5 24 -5 13 1 19 25 23 24 5 31 12 31 30
0 31 17 40 39 20 10 -9 27 -16 39 -16 18 0 22 6 22 34 0 19 -5 38 -10 41 -5 3
-10 17 -10 30 0 14 -9 29 -20 35 -13 7 -18 16 -13 23 4 7 8 21 8 32 0 12 9 21
24 25 32 7 36 22 11 45 -21 19 -27 45 -11 45 6 0 13 -4 16 -10 3 -5 37 -10 74
-10 49 0 72 -4 81 -15 16 -20 46 -19 54 1 9 25 7 62 -5 69 -5 4 -9 17 -8 28 4
34 -45 103 -82 116 -17 6 -42 23 -56 37 l-24 26 38 34 c21 18 41 33 46 34 4 0
14 -18 23 -40 12 -31 22 -40 40 -40 13 0 28 -9 34 -21 9 -16 18 -19 36 -15 20
5 28 1 45 -29 12 -20 30 -40 40 -46 10 -5 18 -13 17 -17 -5 -20 16 -52 42 -61
17 -5 30 -15 30 -20 0 -6 8 -11 19 -11 10 0 24 -7 31 -15 16 -20 47 -19 58 1
8 14 12 14 33 3 l24 -14 -22 -3 c-33 -5 -59 -50 -58 -102 0 -42 2 -45 26 -42
19 2 32 -7 55 -38 16 -22 34 -40 40 -40 6 0 19 -9 29 -20 31 -35 81 -60 94
-47 9 9 17 8 32 -1 15 -10 24 -10 34 -2 11 9 16 7 25 -9 13 -26 86 -101 98
-101 4 0 13 5 19 11 7 7 17 3 32 -17 11 -15 21 -33 21 -40 0 -15 31 -27 52
-19 17 7 33 -21 18 -30 -6 -4 -10 -19 -10 -35 0 -29 20 -47 100 -95 42 -25 77
-72 72 -97 -1 -3 14 -32 33 -64 19 -32 35 -62 35 -67 0 -4 9 -5 20 -2 15 5 26
0 40 -17 17 -21 19 -21 25 -5 7 17 5 33 -11 72 -7 18 -6 19 10 6 10 -8 26 -15
37 -16 26 -2 35 -13 22 -26 -8 -8 2 -24 32 -55 48 -49 51 -50 76 -28 22 20 49
12 56 -16 7 -27 27 -20 31 11 6 49 10 51 49 25 21 -14 55 -28 76 -31 33 -6 37
-11 37 -36 0 -25 4 -29 23 -28 65 6 80 -1 146 -66 36 -36 77 -71 90 -78 13 -7
40 -37 60 -69 74 -115 92 -138 130 -163 22 -13 42 -29 45 -34 4 -5 31 -21 60
-35 30 -14 56 -33 60 -42 4 -9 12 -14 22 -10 16 6 87 -26 112 -50 7 -8 19 -14
27 -14 17 0 41 -37 49 -76 9 -39 96 -134 96 -105 0 40 54 36 64 -5 13 -48 83
-22 82 31 -1 28 1 30 31 27 34 -2 36 1 45 63 4 24 38 34 38 11 0 -8 11 -27 25
-42 14 -15 26 -34 27 -43 0 -9 2 -21 2 -27 1 -6 6 -18 12 -25 6 -8 14 -25 18
-39 8 -32 14 -40 51 -66 52 -36 72 -36 84 -1 6 16 11 41 11 55 0 14 6 33 14
41 33 38 86 122 86 136 0 8 5 15 10 15 6 0 10 -7 10 -15 0 -8 4 -15 9 -15 11
0 61 58 61 70 0 18 -24 22 -36 6 -8 -12 -14 -14 -19 -6 -4 6 -1 19 7 28 25 30
48 92 48 128 0 22 6 37 15 41 9 3 25 24 37 46 19 38 21 40 34 22 16 -22 18
-37 5 -50 -11 -11 -3 -65 9 -65 17 0 60 62 60 86 0 15 6 24 15 24 8 0 15 5 15
10 0 6 -7 10 -15 10 -20 0 -19 29 1 37 9 3 26 0 37 -7 18 -11 23 -10 35 6 13
18 14 18 29 -3 14 -21 16 -21 39 -6 13 8 24 21 24 29 0 20 49 48 87 50 41 1
54 12 30 25 -9 6 -17 19 -17 29 0 22 10 26 27 9 16 -16 33 -2 33 28 0 25 1 25
19 9 21 -19 41 -14 41 9 0 8 9 19 19 25 23 12 26 66 4 74 -21 9 -7 24 22 24
14 0 34 7 44 16 23 21 33 20 64 -4 17 -14 23 -26 20 -40 -5 -20 11 -28 22 -10
4 6 15 5 30 -2 28 -13 75 -3 75 16 0 7 9 21 21 32 12 10 34 36 51 56 27 35 28
39 13 61 -14 22 -12 37 7 37 4 0 8 -7 8 -15 0 -27 42 -36 65 -14 20 20 48 97
39 111 -3 4 -38 8 -79 8 -70 0 -76 2 -108 32 -42 41 -77 98 -77 128 0 44 97
170 130 170 9 0 22 6 28 12 8 8 56 15 130 18 l117 5 3 36 c4 52 -23 72 -98 72
-32 0 -65 -4 -72 -10 -7 -6 -29 -14 -48 -18 -19 -4 -43 -13 -52 -19 -26 -15
-38 6 -38 66 0 44 2 48 28 54 15 4 30 11 33 17 6 8 144 30 194 30 43 0 139
-21 143 -32 2 -6 9 -11 15 -11 6 0 24 -12 39 -27 l28 -27 0 -166 c0 -92 3
-194 6 -228 6 -52 9 -59 23 -52 9 5 28 11 42 14 26 6 27 10 33 83 3 43 8 145
12 227 8 185 10 188 117 184 l72 -3 6 -165 c3 -91 7 -186 8 -211 1 -45 8 -53
45 -57 5 0 12 -6 17 -13 9 -15 -26 -59 -48 -59 -8 0 -13 -12 -13 -30 0 -16 -4
-30 -9 -30 -5 0 -11 -8 -13 -18 -3 -11 -28 -34 -57 -52 -48 -31 -63 -50 -42
-50 5 0 11 -10 13 -22 2 -19 9 -23 36 -22 38 2 118 37 149 66 11 11 41 22 65
25 23 2 61 11 82 19 25 10 53 13 77 9 30 -5 45 -1 78 19 45 29 79 33 87 12 8
-21 -11 -54 -77 -133 -15 -20 -2 -16 103 30 59 25 80 14 71 -38 -4 -27 -2 -36
11 -41 20 -8 84 19 137 58 34 25 40 26 54 12 19 -19 19 -35 0 -126 -20 -93
-13 -124 30 -143 22 -8 36 -22 39 -37 32 -150 33 -146 -49 -203 -31 -22 -101
-77 -157 -123 -113 -93 -121 -98 -189 -118 -27 -8 -53 -23 -58 -33 -5 -9 -28
-23 -50 -31 -23 -7 -43 -21 -47 -32 -9 -31 -49 -51 -74 -38 -24 13 -56 6 -64
-15 -3 -8 -12 -15 -20 -15 -9 0 -23 -9 -33 -19 -10 -10 -27 -21 -38 -23 -31
-5 -30 -34 1 -42 22 -6 25 -11 22 -36 -4 -24 0 -30 20 -35 19 -5 32 1 57 25
33 32 45 31 45 -6 0 -18 8 -25 31 -31 l31 -9 -54 -27 c-43 -22 -60 -37 -74
-68 -14 -29 -27 -42 -47 -46 -15 -3 -32 -14 -38 -24 -12 -22 -70 -51 -119 -59
-29 -4 -37 -11 -46 -39 -8 -26 -12 -30 -17 -17 -8 21 -42 17 -42 -4 0 -8 10
-16 23 -18 31 -5 28 -30 -4 -34 -37 -4 -95 -75 -74 -88 8 -6 21 -8 27 -5 7 2
19 -5 27 -16 18 -27 54 -17 62 17 8 30 49 64 79 64 12 0 35 15 52 35 21 23 40
35 57 35 18 0 30 8 40 29 12 22 24 30 58 35 23 4 49 13 58 20 17 15 146 46
190 46 15 0 32 -6 38 -12 14 -18 -25 -63 -62 -72 l-29 -7 26 -25 c48 -45 83
-28 167 78 32 41 50 36 50 -12 0 -22 -4 -40 -10 -40 -5 0 -10 -7 -10 -15 0 -9
-13 -24 -30 -33 -16 -9 -30 -23 -30 -30 0 -7 -12 -17 -26 -22 -15 -6 -37 -19
-50 -29 -13 -10 -44 -24 -69 -31 -25 -7 -50 -21 -56 -32 -12 -23 -29 -15 -29
14 0 39 23 86 47 97 13 6 21 16 18 21 -13 22 -47 8 -95 -39 -44 -43 -50 -54
-45 -78 12 -52 14 -55 40 -51 14 3 33 0 42 -7 14 -11 12 -14 -22 -25 -37 -12
-39 -11 -57 14 -36 48 -101 28 -156 -47 -17 -25 -32 -47 -32 -50 0 -10 50 6
50 17 1 19 63 44 88 35 20 -8 23 -14 17 -39 -6 -27 -4 -30 19 -30 14 0 26 -3
26 -8 0 -4 10 -12 21 -17 27 -13 29 -29 3 -34 -10 -2 -23 -9 -27 -17 -4 -8
-14 -14 -22 -14 -12 0 -75 -70 -75 -84 0 -13 68 -5 81 10 14 17 72 12 97 -8 9
-8 22 -6 45 5 30 14 108 33 187 45 46 6 109 47 120 77 12 32 24 31 56 0 27
-27 52 -27 74 0 7 8 22 15 34 15 11 0 45 16 74 36 49 35 58 37 144 40 l91 4
-33 -25 c-19 -14 -38 -25 -42 -25 -4 0 -8 -7 -8 -15 0 -8 4 -15 8 -15 5 0 19
-9 31 -19 13 -11 28 -22 34 -24 9 -3 7 -13 -5 -33 -13 -23 -25 -30 -55 -32
-34 -3 -52 -15 -53 -34 0 -5 86 -8 190 -8 l190 0 0 3450 0 3450 -1078 0 c-837
0 -1081 -3 -1090 -12 -10 -10 -17 -10 -32 0 -26 16 -27 15 -40 -7z m460 -441
c0 -5 -4 -10 -10 -10 -5 0 -10 5 -10 10 0 6 5 10 10 10 6 0 10 -4 10 -10z
m415 -610 c8 -13 -15 -13 -35 0 -12 8 -11 10 7 10 12 0 25 -4 28 -10z m-315
-1130 c0 -5 -9 -10 -21 -10 -11 0 -17 5 -14 10 3 6 13 10 21 10 8 0 14 -4 14
-10z m-955 -1232 c3 -13 6 -65 8 -117 2 -97 11 -116 40 -86 9 8 25 15 36 15
11 0 32 4 46 10 61 23 169 -34 191 -102 3 -12 13 -28 20 -36 10 -9 14 -40 14
-99 0 -79 -3 -92 -37 -160 -49 -98 -75 -113 -191 -113 -61 1 -93 5 -106 15
-28 21 -41 19 -54 -10 -10 -22 -18 -25 -61 -25 -41 0 -52 4 -62 22 -13 24 -9
674 4 696 5 8 33 12 77 12 64 0 70 -2 75 -22z m535 -333 l0 -355 -80 0 -80 0
-1 78 c-2 178 -2 306 -1 465 l2 167 80 0 80 0 0 -355z m-1342 329 c21 -6 22
-12 22 -90 0 -91 -3 -86 65 -96 15 -2 21 -12 23 -42 4 -43 -7 -56 -49 -56 -15
0 -30 -7 -33 -16 -9 -22 -7 -237 2 -250 4 -7 18 -14 32 -15 23 -4 25 -9 28
-61 3 -64 -2 -70 -80 -83 l-38 -6 0 -99 c0 -97 4 -112 27 -89 6 6 50 11 101
11 104 1 146 -16 174 -71 9 -19 22 -39 27 -44 18 -18 14 -269 -4 -293 -8 -10
-15 -26 -15 -33 0 -17 -49 -71 -64 -71 -5 0 -17 -7 -26 -15 -24 -22 -173 -25
-197 -4 -32 28 -50 29 -61 5 -7 -17 -19 -22 -53 -24 -86 -3 -79 -35 -79 368
l0 358 23 6 c12 3 36 6 52 6 24 1 27 3 14 10 -9 5 -25 22 -35 37 -17 25 -19
48 -19 198 l0 170 -25 3 c-68 7 -71 10 -68 55 2 28 8 42 18 44 8 1 32 4 52 8
l36 6 7 77 c3 42 8 83 10 90 5 13 91 17 133 6z m1730 -155 c43 -9 60 -21 121
-83 74 -77 77 -84 56 -153 -3 -9 -53 -13 -187 -15 -177 -3 -183 -4 -186 -24
-2 -11 4 -27 13 -34 8 -7 15 -20 15 -29 0 -10 13 -27 30 -39 26 -19 42 -22
134 -22 59 0 116 5 131 12 14 6 28 8 33 3 4 -4 1 -10 -5 -12 -7 -3 -13 -17
-13 -32 0 -18 -12 -40 -37 -64 l-36 -37 -97 0 c-118 0 -181 23 -255 95 l-49
46 1 115 c1 91 4 119 17 133 9 10 16 22 16 27 0 16 130 108 165 117 35 8 83 7
133 -4z m-1288 -17 c65 -25 102 -47 127 -74 20 -21 23 -37 28 -173 3 -83 2
-179 -2 -215 l-8 -65 -42 -9 -43 -9 0 -353 c0 -254 -3 -355 -11 -360 -19 -11
-122 -4 -132 9 -5 7 -6 166 -3 354 6 376 9 353 -57 353 -18 0 -41 7 -51 15
-11 8 -27 15 -36 15 -25 0 -51 34 -70 91 -16 47 -16 54 -1 101 17 56 66 98
111 98 14 0 31 5 37 11 6 6 41 9 87 7 75 -3 76 -3 76 22 -1 14 -10 36 -21 49
-18 22 -28 24 -95 25 -47 0 -78 -4 -82 -11 -10 -16 -62 -35 -79 -29 -8 3 -13
22 -13 51 0 39 4 47 24 55 13 5 27 14 31 19 3 6 21 11 38 11 18 1 43 7 57 15
34 19 76 18 130 -3z m-1336 -17 c8 -8 18 -15 23 -15 5 0 24 -11 44 -24 31 -21
37 -32 47 -89 7 -35 12 -137 12 -225 0 -186 -3 -194 -72 -184 -39 5 -42 4 -30
-11 9 -11 11 -30 7 -59 -4 -24 -2 -55 4 -70 9 -23 16 -27 58 -30 l48 -3 3 -53
c4 -64 -8 -82 -54 -82 -18 0 -36 -5 -40 -12 -10 -15 -6 -240 4 -250 5 -5 23
-5 40 -2 26 5 32 11 32 33 0 15 7 36 15 47 8 10 15 26 15 35 0 17 56 69 74 69
5 0 18 8 28 17 15 14 39 17 118 17 90 0 100 2 100 18 0 10 -10 28 -22 41 -20
19 -32 22 -96 20 -53 -1 -79 -6 -92 -18 -10 -9 -29 -15 -42 -13 -20 3 -23 9
-26 56 -4 63 8 82 53 82 18 0 38 7 45 15 17 21 148 21 176 0 10 -8 30 -15 43
-15 14 0 39 -16 62 -40 l39 -40 0 -224 c0 -181 -3 -226 -14 -235 -8 -7 -37
-11 -68 -9 -50 3 -53 5 -56 31 -2 15 -5 27 -7 27 -2 0 -19 -13 -37 -30 -18
-16 -43 -30 -56 -30 -13 0 -32 -5 -42 -10 -31 -16 -125 13 -158 50 -32 35 -57
33 -66 -6 -7 -28 -72 -63 -116 -64 -44 0 -120 64 -120 100 0 10 -7 31 -15 46
-8 16 -15 38 -15 49 -1 19 -2 19 -17 -2 -8 -13 -26 -23 -38 -23 -14 0 -25 -7
-28 -20 -3 -12 -14 -20 -26 -20 -12 0 -21 -6 -21 -15 0 -8 -25 -31 -55 -51
l-56 -35 -142 3 c-130 3 -169 10 -227 38 -8 4 -16 24 -18 45 -2 21 -10 48 -18
61 -12 18 -13 27 -4 44 6 12 9 28 6 37 -3 8 -1 23 4 33 7 13 7 21 -1 26 -7 4
-9 25 -4 58 5 41 1 65 -15 109 -20 54 -20 77 1 77 5 0 9 -11 9 -25 0 -36 22
-31 64 15 31 35 41 40 79 40 24 0 47 4 53 9 15 13 101 34 113 26 6 -3 11 -12
11 -20 0 -10 18 -13 79 -12 102 2 113 -6 109 -86 -4 -73 -20 -89 -70 -68 -37
16 -108 21 -107 7 0 -5 -12 -17 -28 -27 -20 -13 -23 -19 -11 -19 9 0 20 5 24
11 11 19 89 2 148 -32 43 -24 55 -35 53 -52 -2 -18 2 -21 26 -19 16 2 27 -1
27 -8 0 -15 52 -70 66 -70 12 0 29 184 19 201 -4 5 -24 9 -46 9 -28 0 -42 5
-47 18 -11 28 -6 134 7 167 13 30 13 30 22 7 11 -28 38 -40 50 -21 5 8 7 30 5
50 -9 58 13 79 84 79 58 0 59 1 51 23 -5 12 -7 91 -5 175 4 142 3 156 -16 187
-13 22 -32 36 -51 40 -45 10 -139 -3 -139 -19 0 -8 -7 -19 -15 -26 -12 -10
-15 -45 -15 -191 l0 -179 -84 0 c-51 0 -88 4 -92 11 -8 14 -5 384 4 464 l7 60
62 3 c60 3 63 2 69 -23 3 -14 10 -25 14 -25 4 0 34 13 66 30 49 25 71 30 131
30 50 0 76 -4 87 -15z m584 -11 c18 -12 22 -24 22 -64 0 -27 -5 -52 -10 -55
-6 -4 -30 3 -54 15 -56 27 -182 26 -199 -2 -9 -13 -6 -21 14 -37 13 -11 35
-21 49 -21 14 0 36 -7 50 -15 14 -8 36 -14 49 -15 36 0 101 -41 101 -63 0 -10
7 -35 16 -54 16 -32 16 -37 0 -69 -9 -19 -16 -42 -16 -52 0 -19 -21 -35 -95
-70 -44 -21 -60 -23 -130 -19 -44 3 -94 13 -110 21 -17 9 -40 16 -53 16 -30 0
-46 36 -35 80 12 45 36 60 61 37 10 -9 25 -17 33 -17 9 0 24 -7 35 -15 11 -8
42 -14 75 -15 50 0 59 3 73 26 10 14 16 30 14 35 -4 12 -103 48 -134 49 -11 0
-29 7 -40 15 -10 8 -26 15 -35 15 -8 0 -34 19 -57 42 -38 37 -42 46 -42 88 0
30 6 52 15 60 8 7 15 17 15 22 0 12 42 46 83 68 38 21 270 16 305 -6z m-1077
-1 c10 -11 14 -75 17 -244 3 -126 1 -240 -2 -254 -6 -24 -10 -25 -75 -25 -78
0 -101 6 -101 26 0 19 -13 17 -38 -6 -18 -17 -35 -20 -125 -20 l-104 0 -37 42
c-29 32 -40 54 -47 97 -14 85 -12 364 3 379 14 14 136 16 158 2 12 -7 16 -43
20 -179 3 -93 7 -171 10 -174 3 -2 27 -7 54 -11 45 -5 50 -4 77 25 l29 31 0
148 c0 139 1 150 21 163 29 21 123 21 140 0z m317 -490 c-4 -21 -58 -38 -58
-18 0 15 27 34 48 35 8 0 12 -8 10 -17z m3100 -58 c4 -57 -12 -72 -84 -79 -74
-7 -87 3 -82 66 l3 43 60 6 c98 10 100 9 103 -36z m-5345 -84 c46 -49 35 -68
-15 -26 -16 14 -39 25 -50 25 -17 0 -18 2 -8 15 19 23 42 18 73 -14z m4263
-46 c10 -8 28 -15 39 -15 22 0 105 -66 105 -83 0 -5 7 -24 16 -42 10 -21 14
-53 12 -91 l-3 -59 -192 4 c-219 4 -223 3 -179 -68 42 -67 63 -75 186 -74 87
0 112 3 125 17 23 23 35 11 35 -33 0 -31 -7 -45 -42 -80 l-43 -43 -130 4
c-119 4 -134 7 -180 32 -68 38 -78 48 -114 116 -27 52 -31 71 -31 134 0 52 4
77 14 85 8 7 18 26 21 42 10 43 97 125 143 134 20 4 45 13 56 21 28 19 136 19
162 -1z m-2798 -337 c2 -14 10 -32 18 -38 15 -13 19 -40 7 -40 -27 1 -91 89
-76 104 17 16 48 0 51 -26z m4000 -101 c-3 -14 -5 -14 -23 -1 -17 13 -18 16
-5 24 18 11 33 -2 28 -23z m-3944 -96 c7 -11 -3 -41 -14 -41 -11 0 -21 30 -14
41 3 5 9 9 14 9 5 0 11 -4 14 -9z m394 -113 c1 -13 4 -39 8 -58 l7 -35 -23 20
c-12 11 -28 32 -36 47 -14 26 -13 28 6 28 11 0 20 5 20 10 0 21 18 9 18 -12z
m-320 -6 c9 -7 8 -13 -7 -26 -25 -23 -45 -13 -31 15 12 21 18 23 38 11z m552
-86 c0 -16 -18 -31 -27 -22 -8 8 5 36 17 36 5 0 10 -6 10 -14z m2320 -56 c0
-5 -4 -10 -10 -10 -5 0 -10 5 -10 10 0 6 5 10 10 10 6 0 10 -4 10 -10z m-3910
-66 c0 -17 -22 -14 -28 4 -2 7 3 12 12 12 9 0 16 -7 16 -16z m2150 -434 c0 -5
-4 -10 -10 -10 -5 0 -10 5 -10 10 0 6 5 10 10 10 6 0 10 -4 10 -10z m75 -30
c-3 -5 -15 -10 -26 -10 -10 0 -19 5 -19 10 0 6 12 10 26 10 14 0 23 -4 19 -10z
m233 -208 c2 -11 -4 -22 -12 -25 -11 -5 -16 0 -16 13 0 11 -9 25 -20 32 -31
20 -23 28 13 13 18 -7 33 -22 35 -33z m-1678 -68 c0 -9 -5 -14 -12 -12 -18 6
-21 28 -4 28 9 0 16 -7 16 -16z m4361 -208 c-17 -20 2 -54 31 -58 13 -2 24
-11 26 -20 5 -26 -38 -24 -45 2 -6 21 -33 28 -33 8 0 -6 7 -19 15 -28 16 -18
10 -54 -7 -44 -6 4 -20 7 -32 8 -18 1 -21 7 -18 36 1 19 7 39 12 44 6 6 10 20
10 33 0 15 8 27 23 32 27 11 34 6 18 -13z m199 14 c0 -5 -7 -10 -16 -10 -8 0
-12 5 -9 10 3 6 10 10 16 10 5 0 9 -4 9 -10z m220 -75 c15 -18 5 -35 -20 -35
-22 0 -34 15 -26 35 7 19 30 19 46 0z m-4725 -15 c3 -5 1 -10 -4 -10 -6 0 -11
5 -11 10 0 6 2 10 4 10 3 0 8 -4 11 -10z m4452 4 c-3 -3 -12 -4 -19 -1 -8 3
-5 6 6 6 11 1 17 -2 13 -5z m-237 -64 c0 -5 -9 -10 -20 -10 -11 0 -20 5 -20
10 0 6 9 10 20 10 11 0 20 -4 20 -10z m280 -285 c0 -15 -43 -12 -48 3 -3 10 4
13 22 10 15 -2 26 -7 26 -13z m-263 -131 c-9 -9 -28 6 -21 18 4 6 10 6 17 -1
6 -6 8 -13 4 -17z m930 -150 c-3 -3 -12 -4 -19 -1 -8 3 -5 6 6 6 11 1 17 -2
13 -5z"/>
<path d="M4304 3144 c-37 -35 -38 -38 -38 -109 -1 -64 2 -76 23 -99 20 -21 34
-26 71 -26 40 0 49 4 68 30 18 24 22 43 22 109 0 75 -2 82 -27 106 -39 35 -73
32 -119 -11z"/>
<path d="M3500 2463 c-59 -11 -89 -82 -76 -185 6 -41 13 -57 34 -72 36 -27 85
-26 117 4 23 22 25 30 25 114 -1 118 -25 152 -100 139z"/>
<path d="M5040 3198 c-11 -12 -20 -25 -20 -30 0 -4 45 -8 100 -8 55 0 100 4
100 8 0 5 -9 18 -20 30 -17 18 -32 22 -80 22 -48 0 -63 -4 -80 -22z"/>
<path d="M3762 2977 c-47 -50 -12 -103 65 -100 56 2 85 30 87 82 l1 36 -65 3
c-58 2 -68 0 -88 -21z"/>
<path d="M3870 2778 l-35 -18 43 0 c30 0 42 4 42 14 0 23 -12 24 -50 4z"/>
<path d="M2887 2252 c-23 -25 -22 -85 1 -105 19 -18 68 -22 89 -9 23 14 63 83
63 107 0 24 -2 25 -68 25 -54 0 -72 -4 -85 -18z"/>
<path d="M4238 2467 c-16 -13 -28 -31 -28 -40 0 -16 10 -17 102 -15 113 3 125
11 81 52 -37 35 -115 36 -155 3z"/>
<path d="M2460 6870 c-48 -10 -100 -39 -100 -55 0 -23 33 -27 50 -6 8 11 33
26 54 33 22 7 41 19 44 26 4 13 3 13 -48 2z"/>
<path d="M4400 6820 c14 -11 36 -20 49 -20 l24 0 -26 20 c-14 11 -36 20 -49
20 l-23 0 25 -20z"/>
<path d="M4480 6780 c0 -5 5 -10 11 -10 5 0 7 5 4 10 -3 6 -8 10 -11 10 -2 0
-4 -4 -4 -10z"/>
<path d="M1433 6772 c-7 -5 -7 -16 -1 -32 9 -24 10 -24 24 -6 8 11 14 23 14
27 0 11 -26 18 -37 11z"/>
<path d="M4372 6760 c7 -11 17 -20 23 -20 5 0 19 -14 30 -30 14 -22 26 -29 39
-26 11 3 25 -2 32 -12 8 -9 14 -12 14 -6 0 21 -104 114 -127 114 -21 0 -22 -2
-11 -20z"/>
<path d="M2130 6710 c-24 -9 -50 -27 -58 -39 -8 -11 -20 -21 -27 -21 -7 0 -18
-7 -25 -15 -22 -26 5 -45 64 -45 55 0 96 20 96 47 0 13 8 15 42 10 43 -6 98
13 98 34 0 11 -26 8 -64 -7 -13 -5 -16 1 -16 25 0 29 -3 31 -32 30 -18 -1 -53
-9 -78 -19z"/>
<path d="M1770 6695 c-8 -9 -8 -15 -2 -15 12 0 26 19 19 26 -2 2 -10 -2 -17
-11z"/>
<path d="M2360 6691 c0 -6 5 -13 10 -16 6 -3 10 1 10 9 0 9 -4 16 -10 16 -5 0
-10 -4 -10 -9z"/>
<path d="M4277 6684 c-8 -8 14 -54 26 -54 6 0 7 -18 4 -43 -8 -57 9 -88 55
-101 20 -6 49 -22 64 -35 18 -15 29 -20 32 -13 2 7 14 12 27 12 27 0 30 4 39
46 6 27 3 32 -26 45 -18 7 -33 19 -34 24 -3 38 -50 96 -71 88 -8 -3 -22 2 -32
11 -10 9 -25 14 -34 11 -8 -4 -18 -2 -22 4 -7 12 -19 14 -28 5z"/>
<path d="M1375 6671 c-3 -5 0 -13 5 -16 8 -5 6 -13 -6 -26 -15 -16 -15 -19 -2
-19 23 0 41 26 33 50 -7 21 -20 26 -30 11z"/>
<path d="M1695 6660 c-3 -5 -1 -10 4 -10 6 0 11 5 11 10 0 6 -2 10 -4 10 -3 0
-8 -4 -11 -10z"/>
<path d="M1625 6629 c-10 -15 3 -25 16 -12 7 7 7 13 1 17 -6 3 -14 1 -17 -5z"/>
<path d="M4252 6608 c2 -6 10 -14 16 -16 7 -2 10 2 6 12 -7 18 -28 22 -22 4z"/>
<path d="M1668 6574 c-31 -16 -37 -39 -13 -48 18 -7 10 -30 -21 -62 -13 -12
-24 -28 -24 -34 0 -13 37 -13 45 1 4 5 18 14 31 19 14 6 24 18 24 30 0 15 9
21 40 26 48 8 63 24 23 24 -37 0 -52 11 -50 35 2 24 -20 28 -55 9z"/>
<path d="M4785 6560 c-7 -12 4 -16 58 -24 40 -5 49 7 18 24 -25 13 -68 13 -76
0z"/>
<path d="M4722 6528 c7 -19 38 -22 38 -4 0 10 -9 16 -21 16 -12 0 -19 -5 -17
-12z"/>
<path d="M1837 6464 c-3 -4 -26 -6 -51 -6 -39 1 -43 -1 -39 -19 7 -26 20 -32
27 -13 4 11 13 14 31 10 24 -6 65 11 65 26 0 10 -24 11 -33 2z"/>
<path d="M4495 6390 c3 -5 13 -10 21 -10 8 0 12 5 9 10 -3 6 -13 10 -21 10 -8
0 -12 -4 -9 -10z"/>
<path d="M4660 6380 c0 -13 5 -20 13 -17 6 2 12 10 12 17 0 7 -6 15 -12 18 -8
2 -13 -5 -13 -18z"/>
<path d="M1520 6340 c0 -5 5 -10 10 -10 6 0 10 5 10 10 0 6 -4 10 -10 10 -5 0
-10 -4 -10 -10z"/>
<path d="M1420 6310 c0 -5 12 -10 28 -9 24 0 25 1 7 9 -27 12 -35 12 -35 0z"/>
<path d="M1685 6310 c-3 -5 -1 -10 4 -10 6 0 11 5 11 10 0 6 -2 10 -4 10 -3 0
-8 -4 -11 -10z"/>
<path d="M4976 6261 c-5 -7 -14 -10 -22 -7 -8 3 -14 1 -14 -5 0 -6 -4 -7 -10
-4 -5 3 -10 1 -10 -5 0 -6 7 -13 15 -17 9 -3 15 -13 13 -22 -3 -23 37 -94 62
-109 17 -10 24 -10 41 2 13 9 16 16 10 21 -6 3 -11 15 -11 25 0 11 -9 24 -20
30 -14 8 -19 17 -15 30 3 10 1 21 -5 25 -6 4 -15 16 -19 28 -6 14 -10 17 -15
8z"/>
<path d="M1460 6205 c-7 -8 -10 -19 -6 -22 9 -9 38 8 38 22 -1 16 -18 16 -32
0z"/>
<path d="M1330 6110 c0 -5 5 -10 10 -10 6 0 10 5 10 10 0 6 -4 10 -10 10 -5 0
-10 -4 -10 -10z"/>
<path d="M3276 6049 c-3 -17 -6 -40 -6 -50 0 -18 -21 -52 -72 -120 -16 -20
-28 -41 -28 -47 0 -7 -13 -12 -29 -12 -32 0 -61 -30 -61 -62 0 -19 15 -24 25
-8 3 6 10 10 16 10 11 0 12 -27 2 -32 -14 -6 -43 -78 -43 -108 0 -16 -11 -41
-25 -58 -14 -17 -25 -34 -25 -40 0 -5 -7 -15 -16 -22 -21 -18 -55 13 -36 32
17 17 16 78 -1 78 -23 0 -57 -45 -57 -73 0 -19 -7 -30 -22 -36 -18 -6 -19 -9
-5 -14 26 -10 22 -47 -5 -47 -13 0 -29 4 -37 9 -9 6 -23 4 -38 -6 -13 -8 -23
-12 -23 -8 0 4 -25 -16 -55 -43 -35 -32 -97 -72 -168 -107 -61 -30 -123 -62
-137 -69 -14 -8 -59 -24 -100 -36 -41 -12 -79 -26 -85 -30 -5 -4 -36 -15 -68
-24 -67 -20 -163 -14 -214 12 -26 13 -37 14 -57 4 -14 -6 -26 -15 -26 -20 0
-13 108 -60 190 -82 61 -17 91 -19 166 -14 81 6 94 4 134 -16 44 -23 45 -23
115 -6 38 10 88 16 110 14 l40 -3 0 -85 c0 -47 4 -91 8 -97 15 -23 52 -14 152
37 122 61 150 68 176 44 10 -9 19 -23 19 -30 0 -22 44 -60 65 -56 11 2 60 17
109 33 71 24 95 28 117 20 35 -12 63 -4 156 43 56 27 84 36 118 34 36 -1 51 4
73 24 48 44 59 43 98 -12 51 -72 96 -89 135 -54 17 15 21 15 58 0 30 -12 47
-13 67 -6 18 7 40 6 79 -6 79 -22 89 -14 120 104 9 33 30 27 88 -28 68 -65
100 -67 146 -10 17 22 40 40 50 40 10 0 31 12 46 26 15 14 32 23 39 21 103
-39 112 -41 172 -27 33 7 63 16 67 20 15 13 -50 50 -87 50 -20 0 -51 6 -69 14
-43 17 -225 205 -275 282 -54 83 -119 139 -183 158 -63 19 -91 36 -147 93 -24
24 -52 43 -61 43 -10 0 -30 9 -44 20 -28 22 -77 100 -77 123 0 8 -9 22 -20 32
-11 10 -20 24 -20 32 0 21 -43 33 -56 15 -15 -20 -53 -6 -64 24 -11 28 -50 33
-70 9 -9 -11 -9 -22 0 -51 10 -31 10 -38 -4 -52 -14 -14 -20 -14 -36 -4 -18
11 -23 9 -38 -18 -9 -16 -20 -30 -23 -30 -11 0 -73 83 -74 99 0 9 -4 21 -7 26
-3 6 -11 29 -17 53 -8 27 -21 48 -39 59 -15 9 -32 22 -38 29 -5 7 -22 16 -36
19 -22 6 -26 3 -32 -26z m472 -190 c16 -24 12 -32 -12 -23 -9 3 -16 15 -16 25
0 25 12 24 28 -2z"/>
<path d="M3910 5829 c0 -13 52 -79 63 -79 15 0 6 30 -19 59 -26 31 -44 40 -44
20z"/>
<path d="M940 5163 c-99 -23 -126 -28 -192 -31 -23 -2 -28 -7 -28 -27 0 -43
34 -44 170 -6 63 18 103 21 248 21 134 0 173 3 170 13 -3 7 -31 14 -74 17 -43
3 -78 12 -94 23 -32 22 -73 21 -200 -10z"/>
<path d="M1565 5171 c-34 -9 -75 -32 -75 -43 0 -5 15 -8 34 -8 19 0 47 -5 62
-10 21 -9 31 -8 42 4 13 13 13 18 -2 40 -9 14 -20 26 -24 25 -4 -1 -20 -4 -37
-8z"/>
<path d="M690 2736 c0 -2 7 -9 15 -16 12 -10 15 -10 15 4 0 9 -7 16 -15 16 -8
0 -15 -2 -15 -4z"/>
<path d="M723 2639 c0 -24 4 -39 12 -39 12 0 62 48 54 53 -2 1 -18 7 -35 13
l-31 11 0 -38z"/>
<path d="M493 2653 c-18 -7 -16 -33 2 -53 19 -21 11 -44 -21 -59 -22 -10 -25
-16 -22 -58 3 -45 4 -48 34 -50 25 -2 36 3 49 23 13 20 22 24 41 20 13 -4 24
-2 24 3 0 17 -30 81 -39 81 -14 0 -31 50 -25 76 5 19 2 24 -12 23 -11 0 -25
-3 -31 -6z"/>
<path d="M4843 2247 c-56 -38 -38 -97 34 -110 22 -4 37 -2 47 8 8 8 19 15 25
15 20 0 61 55 61 82 0 28 0 28 -67 27 -52 -1 -76 -6 -100 -22z"/>
<path d="M4476 1640 c-23 -24 -27 -33 -18 -42 15 -15 46 13 57 50 9 30 -4 27
-39 -8z"/>
<path d="M770 1606 c0 -9 5 -16 10 -16 6 0 10 4 10 9 0 6 -4 13 -10 16 -5 3
-10 -1 -10 -9z"/>
<path d="M4394 1605 c-7 -17 4 -37 17 -30 12 8 12 45 -1 45 -6 0 -13 -7 -16
-15z"/>
<path d="M2917 1134 c-12 -13 -8 -36 11 -50 19 -15 42 -18 42 -6 0 14 -45 63
-53 56z"/>
<path d="M1672 938 c-21 -21 -13 -28 33 -28 25 0 45 4 45 9 0 21 -62 35 -78
19z"/>
<path d="M1802 858 c3 -7 13 -15 24 -17 16 -3 17 -1 5 13 -16 19 -34 21 -29 4z"/>
<path d="M5387 716 c-12 -10 -15 -16 -7 -21 16 -10 40 2 40 20 0 18 -9 19 -33
1z"/>
<path d="M5410 611 c0 -17 30 -25 43 -12 8 8 8 11 0 11 -6 0 -18 3 -27 6 -9 3
-16 1 -16 -5z"/>
<path d="M5335 570 c3 -5 8 -10 11 -10 2 0 4 5 4 10 0 6 -5 10 -11 10 -5 0 -7
-4 -4 -10z"/>
<path d="M2155 560 c3 -5 8 -10 11 -10 2 0 4 5 4 10 0 6 -5 10 -11 10 -5 0 -7
-4 -4 -10z"/>
<path d="M2190 542 c0 -19 12 -42 22 -42 14 0 5 43 -9 48 -7 2 -13 -1 -13 -6z"/>
<path d="M2350 521 c0 -5 6 -14 14 -20 10 -9 15 -8 19 3 3 8 3 17 0 20 -9 9
-33 7 -33 -3z"/>
<path d="M5095 490 c-3 -5 -19 -10 -34 -10 -27 0 -51 -16 -51 -33 0 -4 8 -6
18 -4 9 3 38 8 65 12 26 3 47 10 47 15 0 15 -38 32 -45 20z"/>
<path d="M5203 471 c-21 -10 -33 -25 -35 -41 -3 -21 -9 -25 -40 -28 -38 -3
-54 -22 -20 -22 23 0 42 -19 42 -41 0 -28 30 -31 56 -7 27 27 31 48 8 48 -11
0 -14 5 -10 16 3 9 6 19 6 24 0 4 17 18 37 30 29 17 34 23 22 31 -18 11 -27
10 -66 -10z"/>
<path d="M2378 462 c-16 -9 -28 -22 -28 -28 0 -7 -3 -19 -6 -28 -4 -11 5 -20
29 -32 20 -10 38 -27 41 -39 9 -36 46 -75 71 -75 13 0 25 -5 27 -11 2 -5 20
-14 41 -18 35 -8 37 -7 37 15 0 14 -7 27 -15 30 -14 6 -15 40 -1 63 4 5 2 12
-4 16 -5 3 -10 17 -10 30 0 19 -7 26 -27 31 -48 10 -73 23 -73 38 0 29 -43 33
-82 8z m62 -42 c0 -16 -2 -30 -5 -30 -9 0 -26 41 -20 50 12 20 25 9 25 -20z"/>
<path d="M2112 388 c5 -15 37 -18 41 -3 1 6 -9 12 -22 13 -16 3 -22 -1 -19
-10z"/>
<path d="M2012 358 c5 -15 43 -22 66 -13 15 6 15 8 -3 15 -32 13 -67 12 -63
-2z"/>
<path d="M2175 350 c3 -5 8 -10 11 -10 2 0 4 5 4 10 0 6 -5 10 -11 10 -5 0 -7
-4 -4 -10z"/>
<path d="M4926 353 c-11 -11 -6 -23 9 -23 8 0 15 4 15 9 0 13 -16 22 -24 14z"/>
<path d="M2600 323 c0 -13 29 -38 35 -31 3 3 -4 13 -15 23 -11 10 -20 13 -20
8z"/>
<path d="M4710 306 c-6 -6 -10 -16 -10 -23 0 -7 -6 -13 -14 -13 -17 0 -61 -58
-52 -67 3 -3 1 -12 -5 -20 -9 -11 -5 -12 22 -7 101 18 208 82 209 125 0 13
-12 16 -70 15 -39 -1 -75 -5 -80 -10z"/>
<path d="M5230 284 c0 -9 5 -14 12 -12 18 6 21 28 4 28 -9 0 -16 -7 -16 -16z"/>
<path d="M5471 291 c-18 -11 -6 -61 14 -61 18 0 20 20 3 21 -7 0 -2 4 10 10
25 9 25 32 1 36 -8 2 -20 -1 -28 -6z"/>
<path d="M4586 276 c3 -9 -3 -17 -15 -21 -22 -7 -29 -35 -10 -35 7 0 27 9 46
21 31 20 33 22 16 35 -24 18 -44 18 -37 0z"/>
<path d="M5157 250 c-9 -11 -28 -20 -42 -20 -14 0 -25 -4 -25 -10 0 -13 3 -13
50 6 22 9 40 22 40 30 0 18 -2 18 -23 -6z"/>
<path d="M2370 235 c0 -11 67 -75 79 -75 6 0 11 -8 11 -18 0 -15 6 -17 37 -14
32 4 34 6 20 17 -9 7 -17 18 -17 25 0 7 -7 10 -15 6 -9 -3 -30 9 -52 29 -34
31 -63 45 -63 30z"/>
<path d="M4492 229 c2 -6 8 -10 13 -10 5 0 11 4 13 10 2 6 -4 11 -13 11 -9 0
-15 -5 -13 -11z"/>
<path d="M5418 160 c-20 -18 -14 -30 14 -30 11 0 18 7 18 19 0 27 -12 31 -32
11z"/>
<path d="M2260 140 c0 -5 7 -10 15 -10 8 0 15 5 15 10 0 6 -7 10 -15 10 -8 0
-15 -4 -15 -10z"/>
<path d="M4467 100 c-14 -11 -30 -20 -36 -20 -20 0 -61 -24 -61 -36 0 -15 78
-7 100 11 8 6 23 15 33 18 14 6 16 11 7 27 -13 24 -12 24 -43 0z"/>
<path d="M2427 89 c7 -27 28 -34 56 -21 l22 11 -22 7 c-13 3 -23 10 -23 15 0
5 -9 9 -19 9 -14 0 -18 -5 -14 -21z"/>
<path d="M4552 25 c-9 -20 -9 -25 2 -25 13 0 26 20 26 41 0 18 -17 8 -28 -16z"/>
<path d="M4315 10 c-4 -6 5 -10 19 -10 14 0 26 5 26 10 0 6 -9 10 -19 10 -11
0 -23 -4 -26 -10z"/>
<path d="M4830 10 c0 -5 7 -10 15 -10 8 0 15 5 15 10 0 6 -7 10 -15 10 -8 0
-15 -4 -15 -10z"/>
</g>
</svg>
